<svg xmlns="http://www.w3.org/2000/svg" xmlns:xlink="http://www.w3.org/1999/xlink" width="38.941" height="41.203" viewBox="0 0 38.941 41.203">
  <defs>
    <linearGradient id="linear-gradient" x1="0.5" x2="0.5" y2="1" gradientUnits="objectBoundingBox">
      <stop offset="0" stop-color="#7bf8c5"/>
      <stop offset="1" stop-color="#46dea2"/>
    </linearGradient>
  </defs>
  <path id="cup" d="M41.2,2.262a5.861,5.861,0,0,0-3.154.918V1.371A1.371,1.371,0,0,0,36.675,0h-18.1A1.371,1.371,0,0,0,17.2,1.371V3.181a5.895,5.895,0,1,0-3.153,10.874h2.262a.891.891,0,1,1,0,1.782,1.371,1.371,0,0,0,0,2.742,3.612,3.612,0,0,0,1.8-.481,12.27,12.27,0,0,0,2.054,3.66,9.988,9.988,0,0,0,3.789,2.866,12.988,12.988,0,0,1-.75,3.472c-.92,2.407-2.436,3.577-4.633,3.577H16.313a1.371,1.371,0,0,0-1.371,1.371v6.787A1.371,1.371,0,0,0,16.313,41.2H38.937a1.371,1.371,0,0,0,1.371-1.371V33.045a1.371,1.371,0,0,0-1.371-1.371H36.675c-2.2,0-3.713-1.17-4.633-3.577a12.983,12.983,0,0,1-.75-3.472,9.986,9.986,0,0,0,3.789-2.866,12.266,12.266,0,0,0,2.054-3.66,3.612,3.612,0,0,0,1.8.481,1.371,1.371,0,1,0,0-2.742.891.891,0,0,1,0-1.782H41.2a5.9,5.9,0,0,0,0-11.792Zm-24.886,9.05H14.051A3.154,3.154,0,1,1,17.2,8.158v3.264A3.636,3.636,0,0,0,16.313,11.312Zm21.253,23.1v4.045H17.685V34.416H37.566ZM29.452,29a9.831,9.831,0,0,0,1.475,2.672h-6.6A9.835,9.835,0,0,0,25.8,29a15.5,15.5,0,0,0,.85-3.687,9.2,9.2,0,0,0,1.954,0A15.5,15.5,0,0,0,29.452,29Zm-1.827-6.377c-4.449,0-7.678-4.181-7.678-9.941V2.742H35.3v9.941C35.3,18.443,32.074,22.624,27.625,22.624ZM41.2,11.312H38.937a3.631,3.631,0,0,0-.891.111V8.158A3.154,3.154,0,1,1,41.2,11.312Z" transform="translate(-8.155)" fill="url(#linear-gradient)"/>
</svg>
