<svg id="gem" xmlns="http://www.w3.org/2000/svg" width="24.037" height="27.755" viewBox="0 0 24.037 27.755">
  <path id="Path_4093" data-name="Path 4093" d="M46.315,0,34.3,6.939V20.816l12.018,6.939,12.018-6.939V6.939Z" transform="translate(-34.297)" fill="#82d2ff"/>
  <path id="Path_4094" data-name="Path 4094" d="M46.315,13.877V0L34.3,6.939Z" transform="translate(-34.297)" fill="#08b7fc"/>
  <path id="Path_4095" data-name="Path 4095" d="M256,256Z" transform="translate(-243.982 -242.123)" fill="#82d2ff"/>
  <path id="Path_4096" data-name="Path 4096" d="M34.3,128v13.877l12.018-6.939Z" transform="translate(-34.297 -121.061)" fill="#006dff"/>
  <path id="Path_4097" data-name="Path 4097" d="M268.018,128h0L256,134.939h0l12.018,6.939h0Z" transform="translate(-243.982 -121.061)" fill="#08b7fc"/>
  <path id="Path_4098" data-name="Path 4098" d="M46.315,256,34.3,262.939l12.018,6.939Z" transform="translate(-34.297 -242.123)" fill="#0050c0"/>
  <path id="Path_4099" data-name="Path 4099" d="M256,269.877l12.018-6.939L256,256Z" transform="translate(-243.982 -242.123)" fill="#006dff"/>
  <path id="Path_4100" data-name="Path 4100" d="M144.444,123.271v-7.832l-6.783-3.916-6.783,3.916v7.832l6.783,3.916Z" transform="translate(-125.643 -105.477)" fill="#82d2ff"/>
  <path id="Path_4101" data-name="Path 4101" d="M262.783,123.271s1.7-4.895,0-7.832S256,111.523,256,111.523v15.664Z" transform="translate(-243.982 -105.477)" fill="#55cbff"/>
</svg>
